<?xml version="1.0" standalone="no"?>
<!DOCTYPE svg PUBLIC "-//W3C//DTD SVG 20010904//EN"
 "http://www.w3.org/TR/2001/REC-SVG-20010904/DTD/svg10.dtd">
<svg version="1.0" xmlns="http://www.w3.org/2000/svg"
 width="700.000000pt" height="700.000000pt" viewBox="0 0 700.000000 700.000000"
 preserveAspectRatio="xMidYMid meet">
<metadata>
Created by potrace 1.14, written by Peter Selinger 2001-2017
</metadata>
<g transform="translate(0.000000,700.000000) scale(0.100000,-0.100000)"
fill="#000000" stroke="none">
<path d="M6155 6893 c-55 -60 -134 -147 -175 -193 -41 -45 -86 -95 -100 -110
-14 -15 -61 -67 -105 -116 -74 -82 -186 -205 -210 -230 -5 -6 -44 -49 -85 -95
-41 -46 -82 -90 -90 -99 -8 -9 -58 -63 -110 -121 -127 -139 -163 -178 -196
-215 -16 -17 -65 -71 -109 -119 -44 -49 -85 -93 -90 -99 -6 -6 -80 -87 -165
-181 -85 -93 -159 -175 -165 -181 -5 -6 -46 -50 -90 -99 -44 -49 -89 -98 -100
-110 -11 -11 -42 -45 -69 -75 -27 -30 -72 -80 -100 -110 -78 -85 -143 -157
-231 -255 -44 -49 -91 -101 -105 -116 -14 -15 -52 -59 -85 -98 l-60 -70 -1225
1227 c-674 675 -1261 1261 -1305 1302 -131 124 -226 200 -251 200 -46 0 -241
-186 -574 -549 -52 -57 -106 -116 -120 -131 -14 -15 -62 -67 -107 -116 -44
-49 -93 -102 -107 -117 -14 -15 -26 -32 -26 -37 0 -17 61 -59 95 -66 31 -5 42
-1 93 37 31 24 163 148 292 276 312 307 325 317 364 274 31 -34 16 -55 -246
-326 -277 -288 -313 -333 -274 -348 33 -13 75 21 326 267 273 268 295 285 329
264 11 -7 23 -18 25 -25 6 -14 -70 -106 -194 -237 -47 -49 -107 -112 -135
-141 -178 -186 -227 -247 -218 -271 7 -20 43 -12 86 19 18 12 128 117 247 233
241 238 294 284 321 284 18 0 39 -27 39 -52 0 -20 -67 -97 -238 -273 -167
-172 -278 -297 -295 -332 -10 -22 4 -53 24 -53 14 0 103 82 339 314 124 122
238 227 252 235 32 17 56 9 67 -21 11 -31 -12 -58 -313 -371 -187 -195 -239
-258 -229 -283 10 -27 63 -13 109 31 6 5 108 105 225 220 283 277 316 304 334
275 7 -11 -15 -55 -45 -90 -92 -106 -128 -146 -295 -325 -182 -194 -215 -244
-176 -264 35 -19 48 -7 366 320 175 180 243 239 276 239 24 0 29 -4 29 -24 0
-35 -61 -111 -233 -290 -318 -331 -345 -366 -301 -383 33 -13 86 31 354 293
256 251 275 265 316 243 13 -7 24 -18 24 -24 0 -23 -55 -85 -276 -314 -225
-233 -253 -264 -270 -300 -15 -31 -15 -35 0 -50 16 -15 19 -15 51 4 18 11 136
121 262 245 265 262 313 303 345 298 38 -5 33 -39 -16 -104 -47 -62 -90 -109
-271 -296 -210 -217 -244 -260 -232 -292 5 -13 12 -14 34 -5 43 16 103 69 307
269 218 214 198 195 257 243 52 42 83 47 99 16 17 -30 -16 -70 -251 -314 -228
-234 -309 -323 -309 -338 0 -7 9 -18 19 -24 31 -19 94 31 320 252 112 110 209
205 215 211 35 34 110 84 126 84 31 0 35 -37 7 -78 -31 -47 -115 -142 -233
-262 -270 -276 -324 -346 -280 -363 32 -12 97 43 376 318 219 216 261 252 280
240 26 -16 -6 -75 -91 -170 -15 -16 -37 -41 -48 -54 -11 -13 -74 -80 -138
-149 -140 -148 -153 -163 -204 -225 -45 -57 -51 -87 -16 -87 32 0 130 84 318
274 221 222 319 296 343 258 5 -8 -19 -62 -32 -72 -4 -3 -41 -43 -82 -90 -41
-46 -118 -129 -172 -185 -199 -207 -244 -260 -253 -296 -8 -32 6 -43 42 -34
16 4 127 106 278 256 139 138 269 262 289 276 33 24 38 25 52 11 14 -14 14
-19 1 -44 -22 -42 -88 -117 -286 -323 -97 -101 -181 -189 -188 -196 -6 -7 -23
-29 -37 -50 -20 -29 -23 -41 -15 -56 22 -43 46 -25 316 241 297 292 339 323
365 265 10 -22 6 -30 -43 -87 -30 -35 -63 -72 -74 -84 -11 -11 -97 -102 -191
-200 -195 -203 -219 -230 -228 -261 -8 -27 19 -45 49 -33 29 12 55 37 311 289
127 126 245 236 262 245 30 16 33 15 52 -4 11 -11 20 -24 20 -29 0 -19 -57
-90 -135 -171 -393 -402 -430 -445 -404 -476 6 -8 17 -14 24 -14 24 0 107 75
310 276 196 195 273 265 307 277 15 5 48 -29 48 -51 0 -14 -86 -111 -271 -303
-172 -178 -267 -289 -271 -313 0 -6 -2 -15 -3 -21 -2 -5 -3 -15 -4 -22 -2 -20
-115 -55 -223 -67 -113 -14 -140 -16 -278 -22 -248 -12 -684 -5 -710 11 -8 5
-125 16 -185 17 -40 1 -149 -9 -175 -17 -3 -1 -25 -7 -50 -14 -425 -117 -739
-468 -816 -912 -46 -264 57 -575 253 -762 183 -175 408 -243 708 -214 161 15
288 67 475 192 84 57 142 107 324 279 82 77 157 148 166 156 9 8 72 67 140
130 69 63 134 124 145 135 19 18 184 170 254 234 24 23 220 205 300 280 38 35
242 225 296 276 130 120 273 254 295 275 173 165 260 201 155 63 -41 -54 -108
-126 -355 -380 -53 -54 -108 -114 -123 -134 -27 -36 -36 -83 -17 -94 25 -16
-6 -69 -105 -181 -33 -37 -68 -76 -78 -88 -28 -32 -194 -212 -273 -296 -59
-63 -139 -149 -204 -220 -8 -9 -67 -72 -131 -141 -136 -145 -148 -158 -254
-274 -44 -48 -85 -93 -90 -99 -113 -122 -264 -310 -316 -391 -141 -224 -167
-570 -62 -838 21 -55 92 -164 140 -218 59 -66 171 -150 259 -196 230 -120 453
-128 721 -28 451 170 732 580 718 1050 -2 61 -6 121 -9 134 -29 127 -24 616 9
886 3 28 8 68 11 90 3 22 7 48 10 57 3 10 7 29 10 42 2 13 19 84 38 157 71
275 163 480 279 619 16 19 76 83 134 142 l106 106 224 -226 c309 -313 1946
-1952 2195 -2198 252 -249 309 -299 338 -301 61 -5 178 82 224 167 36 65 31
82 -43 167 -98 113 -135 151 -1274 1293 -1146 1149 -1470 1480 -1475 1505 -2
8 9 36 24 62 25 44 378 573 579 868 208 306 724 1074 1086 1615 329 493 397
610 387 671 -2 17 -21 1 -103 -88z m-2013 -2638 c43 -29 77 -91 78 -139 0 -43
-35 -108 -73 -133 -111 -76 -247 10 -247 156 0 50 34 96 91 125 59 29 96 27
151 -9z m-958 -101 c8 -22 -63 -104 -280 -321 -159 -160 -215 -203 -260 -203
-60 0 105 190 382 440 110 99 145 118 158 84z m132 -131 c20 -27 17 -48 -13
-78 -62 -63 -252 -170 -270 -152 -10 11 25 55 123 152 101 99 132 115 160 78z
m-2060 -768 c370 -87 535 -506 349 -888 -92 -187 -284 -359 -481 -428 -83 -30
-87 -30 -204 -31 -167 0 -275 28 -350 91 -110 93 -171 179 -214 301 -55 156
-36 331 56 515 57 113 123 194 227 277 185 148 419 210 617 163z m1465 -1619
c342 -99 499 -462 357 -826 -56 -142 -185 -302 -313 -387 -129 -85 -324 -144
-455 -138 -188 8 -383 141 -470 319 -22 45 -42 97 -45 116 -3 19 -8 43 -11 53
-13 42 -4 185 16 262 82 317 350 562 678 619 91 16 139 12 243 -18z"/>
<path d="M6903 6386 c-72 -23 -415 -244 -983 -635 -140 -96 -282 -193 -315
-215 -91 -62 -202 -178 -296 -311 -137 -193 -639 -942 -639 -954 0 -26 28 -5
128 97 59 59 170 166 247 237 77 72 173 162 214 200 88 82 84 79 237 221 65
61 148 137 183 170 36 32 79 73 96 89 18 17 88 82 156 145 68 63 148 138 179
167 30 28 71 66 91 85 83 77 274 255 304 283 17 17 90 84 160 150 210 196 301
284 290 284 -5 0 -29 -6 -52 -13z"/>
</g>
</svg>
