<?xml version="1.0" encoding="UTF-8" standalone="no"?>
<!-- Created with Inkscape (http://www.inkscape.org/) -->

<svg
   version="1.1"
   id="svg2"
   width="939"
   height="305"
   viewBox="0 0 939 305"
   sodipodi:docname="logo-salonu.svg"
   inkscape:version="1.2 (dc2aedaf03, 2022-05-15)"
   xmlns:inkscape="http://www.inkscape.org/namespaces/inkscape"
   xmlns:sodipodi="http://sodipodi.sourceforge.net/DTD/sodipodi-0.dtd"
   xmlns="http://www.w3.org/2000/svg"
   xmlns:svg="http://www.w3.org/2000/svg">
  <defs
     id="defs6">
    <clipPath
       clipPathUnits="userSpaceOnUse"
       id="clipPath387">
      <path
         id="path389"
         style="fill:#ff0000;fill-opacity:1;fill-rule:nonzero;stroke:none"
         d="M 2.0605469,2.28125 V 302.93164 H 937.44922 V 2.28125 Z M 397.7168,193.77539 c 0.96466,0.0133 1.85396,1.13549 1.51953,3.04883 -0.44895,2.56846 -0.27067,5.18154 0.0332,7.7539 0.088,0.31496 0.12555,1.78246 0.83008,1.84376 0.0842,0.007 0.14301,-0.0971 0.22461,-0.11915 0.51516,-0.13856 1.0504,-0.18804 1.57422,-0.28906 1.06613,-0.29037 2.15995,-0.4502 3.23242,-0.70898 -0.68494,-0.80403 -1.24487,-1.77008 -1.94727,-2.55078 0.62038,-0.60744 1.06055,-1.48672 1.86133,-1.82227 2.58488,-1.08314 10.47677,-1.32965 12.3125,-1.37305 1.35356,-0.032 2.70707,-0.0475 4.06055,-0.0488 9.47435,-0.01 18.94345,0.69929 28.36133,1.66796 3.24909,0.43984 6.51349,0.77225 9.74609,1.32032 3.98923,0.67636 8.77565,1.55257 12.46289,3.56054 1.6879,0.9192 2.67823,2.57814 3.48438,4.22071 1.52132,3.09984 -1.68855,4.38067 -3.23828,1.29492 -1.25717,-2.50321 -2.64874,-3.18169 -5.13282,-3.86719 0.55899,1.10033 -0.22604,2.45749 -2.45898,2.20899 -4.57545,-0.5092 -2.22598,-0.24309 -7.04883,-0.79688 -6.63131,-0.7778 -13.27479,-1.44955 -19.92187,-2.08008 0.0103,0.31922 -0.51381,0.51135 -1.7461,1.31641 -1.07765,0.0753 -2.15238,0.20436 -3.23242,0.22656 -3.67569,0.0755 -9.53571,-0.12796 -13.02344,-0.35937 -0.78749,-0.0522 -4.73205,-0.34064 -8.13672,-0.75586 -3.03762,0.57692 -6.06488,1.19367 -9.05664,1.98828 -1.12542,0.17197 -2.14264,0.43714 -3.29297,0.14453 -2.24378,-0.57076 -3.09805,-2.52578 -3.3789,-4.61719 -0.3472,-3.01234 -0.53859,-6.08125 0.0664,-9.07617 0.29914,-1.4808 1.09542,-2.14118 1.84571,-2.13086 z m 22.46484,9.23633 c -0.94659,0.007 -1.89318,0.0124 -2.83984,0.0352 -2.43505,0.0586 -4.87385,0.17646 -7.29492,0.44335 0.53658,0.11375 1.07264,0.25472 1.60937,0.38282 0.51245,-0.0934 1.01138,-0.24711 1.52539,-0.33399 2.32025,-0.37485 4.66231,-0.4197 7,-0.52734 z m -13.06836,0.70508 c -1.92308,0.0748 -1.94465,-0.0423 -1.06445,1.02734 0.37699,-0.28472 0.69964,-0.71086 1.06445,-1.02734 z m 33.47852,0.12304 c 4.58362,0.44985 9.16605,0.91094 13.74218,1.43164 -1.67384,-0.21335 -3.34944,-0.41203 -5.02148,-0.63671 -2.90219,-0.29732 -5.81007,-0.56255 -8.7207,-0.79493 z" />
    </clipPath>
  </defs>
  <sodipodi:namedview
     id="namedview4"
     pagecolor="#ffffff"
     bordercolor="#000000"
     borderopacity="0.25"
     inkscape:showpageshadow="2"
     inkscape:pageopacity="0.0"
     inkscape:pagecheckerboard="0"
     inkscape:deskcolor="#d1d1d1"
     showgrid="false"
     inkscape:zoom="1"
     inkscape:cx="458"
     inkscape:cy="43.5"
     inkscape:window-width="1920"
     inkscape:window-height="991"
     inkscape:window-x="-9"
     inkscape:window-y="-9"
     inkscape:window-maximized="1"
     inkscape:current-layer="g8"
     showguides="true">
    <sodipodi:guide
       position="937.62357,304.29289"
       orientation="0,-1"
       id="guide451"
       inkscape:locked="false" />
    <sodipodi:guide
       position="939.04685,7.2297933e-06"
       orientation="0,-1"
       id="guide453"
       inkscape:locked="false" />
    <sodipodi:guide
       position="682.49998,152.5"
       orientation="0,-1"
       id="guide455"
       inkscape:locked="false" />
  </sodipodi:namedview>
  <g
     inkscape:groupmode="layer"
     inkscape:label="Image"
     id="g8">
    <path
       id="path170"
       clip-path="url(#clipPath387)"
       style="fill:#000000"
       d="m 274.77344,2.3203125 c -0.15517,-0.1871601 -0.64571,0.3115197 -1.62696,1.3085937 -1.08248,1.099994 -7.539,8.0926378 -14.34765,15.5410158 -10.93555,11.962978 -23.70875,25.801279 -72.88086,78.960937 -6.87494,7.432461 -14.66061,15.948361 -17.30274,18.923831 l -4.80468,5.41015 -23.66993,-23.417965 C 127.12172,86.167001 116.22402,75.403906 115.92383,75.128906 115.62363,74.853912 99.603436,58.991292 80.324219,39.878906 55.131866,14.904566 44.637773,5.1289063 43.021484,5.1289062 40.575506,5.1289063 34.32788,11.094882 14.75,32.128906 8.3509782,39.003864 2.7355658,45.00152 2.2695312,45.458984 c -1.1103433,1.089924 2.4571125,3.669922 5.0761719,3.669922 1.2939092,0 7.1017709,-5.046146 15.7988279,-13.726562 13.04835,-13.023372 13.841077,-13.637436 15.486328,-11.992188 1.645257,1.645264 1.248456,2.233347 -7.757812,11.476563 -16.089124,16.512408 -16.549023,17.075778 -14.527344,17.851562 1.337216,0.51314 4.704248,-2.263849 14.072266,-11.609375 8.667627,-8.646816 12.787209,-12.105951 13.908203,-11.675781 0.875962,0.33614 1.59049,1.187824 1.58789,1.892578 -0.0026,0.704754 -5.395391,6.683245 -11.982421,13.283203 C 27.344605,51.22887 21.94779,57.163325 21.9375,57.818359 21.8788,61.556331 25.295172,59.225685 37.017578,47.529297 49.243524,35.330489 49.985363,34.766614 51.632812,36.414062 c 1.647454,1.647454 1.083573,2.389297 -11.115234,14.615235 -11.726759,11.752848 -14.004524,15.099609 -10.27539,15.099609 0.663288,0 6.800053,-5.607819 13.636718,-12.460937 9.570336,-9.593366 12.729929,-12.210573 13.734375,-11.376953 0.71754,0.595494 1.304688,1.582808 1.304688,2.195312 0,0.6125 -5.653425,6.778677 -12.5625,13.703125 -11.183744,11.208624 -12.38344,12.737809 -10.935547,13.939453 1.43174,1.188244 3.11198,-0.135124 14.033203,-11.074218 6.822988,-6.834154 12.94329,-12.425782 13.601563,-12.425782 3.043307,0 0.979985,2.907618 -10.626954,14.978516 -11.216141,11.664488 -12.322929,13.133086 -10.935546,14.5 1.386183,1.365734 2.787083,0.217191 13.734374,-11.257813 6.705293,-7.028518 12.930335,-12.7661 13.833985,-12.75 4.17074,0.07411 2.058366,3.354707 -9.730469,15.115235 -6.826609,6.810218 -12.412109,12.926554 -12.412109,13.589844 0,3.721176 3.33005,1.466498 14.916015,-10.09375 9.403171,-9.382296 13.1367,-12.500706 14.390625,-12.019532 0.931273,0.35736 1.69336,1.158293 1.69336,1.779297 0,0.62101 -5.725935,6.868565 -12.72461,13.882813 -11.460286,11.485778 -12.57115,12.90542 -11.183593,14.292968 1.38755,1.387554 2.774742,0.296463 13.958984,-10.988281 6.830095,-6.891468 13.163811,-12.529297 14.076172,-12.529297 4.214216,0 2.068605,3.33078 -9.714844,15.085938 -6.826609,6.810218 -12.412109,12.926554 -12.412109,13.589844 0,3.725567 3.340068,1.458228 15.017578,-10.19336 9.021575,-9.001546 13.267604,-12.589153 14.390625,-12.158203 0.876185,0.33622 1.591797,1.195189 1.591797,1.908203 0,0.713004 -5.625042,6.90912 -12.5,13.767578 -6.874958,6.858448 -12.5,12.827604 -12.5,13.265624 0,0.43801 0.717565,1.07197 1.59375,1.4082 1.123021,0.43095 5.36905,-3.15664 14.390625,-12.158199 12.101635,-12.074768 15.015625,-13.955742 15.015625,-9.691406 0,0.938624 -5.400042,7.093013 -12,13.675781 -6.599964,6.582754 -12,12.489704 -12,13.126954 0,3.75466 3.756475,1.2054 15.037109,-10.205079 6.754293,-6.83204 12.885552,-12.421875 13.623042,-12.421875 3.19287,0 0.61052,3.730275 -10.410151,15.044924 -6.462464,6.63481 -11.75,12.59414 -11.75,13.24414 0,3.48888 4.157833,0.60346 14.861328,-10.31641 10.919943,-11.140679 15.138673,-14.002202 15.138673,-10.267576 0,0.64819 -5.5761,6.861086 -12.392579,13.806636 -10.963208,11.1708 -12.222349,12.79914 -10.908203,14.11329 1.314139,1.31409 2.914229,0.0367 13.865234,-11.07032 6.808878,-6.90586 12.929068,-12.554684 13.599608,-12.554684 3.74108,0 1.48124,3.328674 -10.21094,15.046874 -11.26127,11.28636 -12.638815,13.02444 -11.453121,14.45313 1.198905,1.44453 2.755223,0.21958 14.082031,-11.08203 8.97448,-8.95463 13.20333,-12.52457 14.32617,-12.09376 0.87619,0.33623 1.5918,1.1818 1.5918,1.87891 0,0.69712 -5.65345,6.93299 -12.5625,13.85742 -11.175424,11.20029 -12.382175,12.73852 -10.937501,13.9375 1.428724,1.18575 3.177201,-0.20243 14.550781,-11.55078 12.27092,-12.24368 13.0166,-12.80957 14.66406,-11.16211 1.64746,1.64746 1.07962,2.39119 -11.16406,14.66211 -11.34933,11.37458 -12.73683,13.12363 -11.55078,14.55274 1.19902,1.44468 2.79789,0.17806 14.45703,-11.45703 10.30396,-10.28276 13.36652,-12.81903 14.32422,-11.86133 0.67005,0.67005 1.21875,1.6971 1.21875,2.2832 0,0.5861 -5.40726,6.45944 -12.01758,13.05078 -8.35535,8.33137 -11.93691,12.5826 -11.75,13.94922 0.22155,1.61985 -0.7004,2.20217 -5.23242,3.30469 -8.389462,2.04092 -37.553145,2.77662 -47.66797,1.20312 -6.511842,-1.013 -9.799147,-1.05317 -14.496094,-0.17968 -19.717276,3.66677 -35.1626007,19.35218 -38.8242185,39.42578 -1.04382,5.72237 -0.9813987,7.81457 0.4199219,14.11328 2.6361208,11.84887 9.2042456,20.39328 19.5429686,25.42187 7.844087,3.81529 20.806679,4.34978 30.044922,1.24024 6.779796,-2.28209 15.692959,-8.12662 22.480469,-14.74024 2.199988,-2.14363 12.32506,-11.4892 22.5,-20.76758 19.132211,-17.44628 33.894301,-30.99454 49.285151,-45.23632 4.90359,-4.5375 9.32161,-8.25 9.81641,-8.25 2.56091,0 -0.26218,3.63496 -11.79492,15.19336 -12.08488,12.11171 -12.61229,12.81033 -11.01953,14.57031 1.59459,1.762 0.2027,3.39845 -29.70313,34.95703 -34.12276,36.00853 -36.314512,38.97136 -38.615231,52.19336 -1.358652,7.80799 -0.0082,17.09807 3.486328,23.99414 4.553188,8.98528 15.388201,16.91604 26.044922,19.06445 6.018181,1.21328 8.406661,1.13714 15.326171,-0.49414 25.38093,-5.98348 41.01209,-28.30675 37.16016,-53.06836 -1.59512,-10.25381 -0.81409,-33.78084 1.47461,-44.41015 4.30509,-19.99414 9.04306,-30.2969 17.92187,-38.97461 l 6.625,-6.47461 30.2461,30.02148 c 65.66091,65.17589 86.90721,85.96194 88.7207,86.79883 3.63731,1.67856 12.02539,-5.43143 12.02539,-10.19336 0,-1.14436 -8.78793,-10.51362 -22.25,-23.72266 -61.35593,-60.2027 -100.75,-99.49212 -100.75,-100.48242 0,-0.60572 3.30621,-5.90979 7.3457,-11.78711 14.98622,-21.80405 44.63229,-65.184984 55.14063,-80.685544 5.96574,-8.799946 14.53867,-21.403974 19.04882,-28.007812 4.51021,-6.603844 8.5279,-13.5788922 8.92969,-15.5000002 0.3642,-1.7413648 0.54579,-2.6136212 0.39063,-2.8007813 z m 30.64453,25.6874995 -3,0.681641 c -2.61434,0.59327 -20.68003,12.283766 -53.38672,34.548828 -10.38495,7.069558 -10.46318,7.16424 -29.17773,34.658203 -6.83906,10.047356 -13.05212,19.159966 -13.80664,20.249996 -0.83782,1.21034 -0.95711,1.98243 -0.30665,1.98243 0.5859,0 1.65241,-0.82515 2.3711,-1.83203 1.3696,-1.91892 7.04033,-7.18407 59.25976,-55.035161 17.62614,-16.151604 33.39688,-30.691709 35.04688,-32.310547 z M 178.06641,118.88666 c 0.87049,-0.14527 1.68201,-0.0137 2.6582,0.35742 5.26441,2.00154 6.81796,7.76283 3.1543,11.69531 -4.44521,4.77138 -11.96094,1.42457 -11.96094,-5.32617 0,-2.86742 0.57878,-3.86706 3.13867,-5.42383 1.21033,-0.73604 2.13927,-1.15746 3.00977,-1.30273 z m -38.25586,4.67578 c 0.60897,0.37636 1.10742,1.02501 1.10742,1.44141 0,1.20764 -18.27258,19.75962 -20.68359,21 -3.27323,1.68385 -4.56502,1.44845 -3.41797,-0.625 1.97229,-3.56538 21.91285,-22.48469 22.99414,-21.81641 z m 5.00976,5.56641 c 0.4697,0 1.35241,0.60035 1.96289,1.33593 0.8461,1.01949 0.57868,1.81215 -1.12695,3.33399 -3.7684,3.3623 -11.73828,7.546 -11.73828,6.16211 0,-1.36951 9.5243,-10.83203 10.90234,-10.83203 z m -95.099607,33.30273 c 8.00408,-0.31146 15.680866,2.64997 20.746094,9.57617 10.846363,14.83139 3.123534,37.08603 -16.048828,46.25 -4.881654,2.33334 -7.304738,2.86128 -13,2.83008 -3.849976,-0.0211 -8.414981,-0.65368 -10.144531,-1.40625 -5.583809,-2.42961 -11.128218,-8.3299 -13.3125,-14.16797 -2.46409,-6.58584 -2.556227,-10.29508 -0.431641,-17.45508 4.59871,-15.49784 18.851272,-25.10785 32.191406,-25.62695 z m 63.373047,69.00391 c 1.70348,-0.0721 3.27302,0.1452 5.4082,0.62304 7.7729,1.7395 13.41833,5.80147 16.87891,12.14258 9.59746,17.58639 -4.11507,41.85906 -25.89648,45.8418 -3.26351,0.59673 -6.18857,1.03967 -6.5,0.98437 -8.441446,-1.49719 -12.696586,-3.64144 -17.269536,-8.70312 -14.406239,-15.94602 -2.599505,-43.71509 21.164066,-49.77344 2.67298,-0.68147 4.51136,-1.04309 6.21484,-1.11523 z"
       sodipodi:nodetypes="sssscccsssssssssssssscsssssssssssssscssssssssssssssssssssssscsssscssscccssssssccsssssscssssscsssssssscsscccsssscssssccsssscsscscssssssccsssssssssssssssscsccss" />
    <text
       xml:space="preserve"
       style="font-size:122.667px;fill:#000000"
       x="326.42767"
       y="156.35139"
       id="text399"><tspan
         sodipodi:role="line"
         id="tspan397"
         x="326.42767"
         y="156.35139"
         style="font-style:normal;font-variant:normal;font-weight:normal;font-stretch:normal;font-size:122.667px;font-family:'Mongolian Baiti';-inkscape-font-specification:'Mongolian Baiti'">Barber Shop</tspan></text>
    <text
       xml:space="preserve"
       style="font-size:122.667px;font-family:'Mongolian Baiti';-inkscape-font-specification:'Mongolian Baiti';fill:#000000"
       x="379"
       y="229"
       id="text168"><tspan
         sodipodi:role="line"
         id="tspan166"></tspan></text>
    <text
       xml:space="preserve"
       style="font-size:122.667px;font-family:'Mongolian Baiti';-inkscape-font-specification:'Mongolian Baiti';fill:#000000"
       x="331"
       y="273"
       id="text172"><tspan
         sodipodi:role="line"
         id="tspan170"
         x="331"
         y="273" /></text>
    <text
       xml:space="preserve"
       style="font-size:122.667px;font-family:'Mongolian Baiti';-inkscape-font-specification:'Mongolian Baiti';fill:#000000"
       x="390"
       y="262"
       id="text176"><tspan
         sodipodi:role="line"
         id="tspan174"
         x="390"
         y="262" /></text>
    <text
       xml:space="preserve"
       style="font-size:42.6667px;font-family:'Mongolian Baiti';-inkscape-font-specification:'Mongolian Baiti';fill:#000000"
       x="341.06927"
       y="218.15938"
       id="text180"><tspan
         sodipodi:role="line"
         id="tspan178"
         x="341.06927"
         y="218.15938"
         style="font-style:normal;font-variant:normal;font-weight:normal;font-stretch:normal;font-size:42.6667px;font-family:'Eras Medium ITC';-inkscape-font-specification:'Eras Medium ITC'">Profesjonalne usługi barberskie</tspan></text>
  </g>
</svg>
