<?xml version="1.0" encoding="UTF-8"?>
<svg version="1.1" viewBox="0 0 939 305" xmlns="http://www.w3.org/2000/svg">
<defs>
<clipPath id="a">
<path d="m2.0605 2.2812v300.65h935.39v-300.65zm395.66 191.49c0.96466 0.0133 1.854 1.1355 1.5195 3.0488-0.44895 2.5685-0.27067 5.1815 0.0332 7.7539 0.088 0.31496 0.12555 1.7825 0.83008 1.8438 0.0842 7e-3 0.14301-0.0971 0.22461-0.11915 0.51516-0.13856 1.0504-0.18804 1.5742-0.28906 1.0661-0.29037 2.16-0.4502 3.2324-0.70898-0.68494-0.80403-1.2449-1.7701-1.9473-2.5508 0.62038-0.60744 1.0606-1.4867 1.8613-1.8223 2.5849-1.0831 10.477-1.3296 12.312-1.373 1.3536-0.032 2.7071-0.0475 4.0606-0.0488 9.4744-0.01 18.943 0.69929 28.361 1.668 3.2491 0.43984 6.5135 0.77225 9.7461 1.3203 3.9892 0.67636 8.7756 1.5526 12.463 3.5605 1.6879 0.9192 2.6782 2.5781 3.4844 4.2207 1.5213 3.0998-1.6886 4.3807-3.2383 1.2949-1.2572-2.5032-2.6487-3.1817-5.1328-3.8672 0.55899 1.1003-0.22604 2.4575-2.459 2.209-4.5754-0.5092-2.226-0.24309-7.0488-0.79688-6.6313-0.7778-13.275-1.4496-19.922-2.0801 0.0103 0.31922-0.51381 0.51135-1.7461 1.3164-1.0776 0.0753-2.1524 0.20436-3.2324 0.22656-3.6757 0.0755-9.5357-0.12796-13.023-0.35937-0.78749-0.0522-4.732-0.34064-8.1367-0.75586-3.0376 0.57692-6.0649 1.1937-9.0566 1.9883-1.1254 0.17197-2.1426 0.43714-3.293 0.14453-2.2438-0.57076-3.098-2.5258-3.3789-4.6172-0.3472-3.0123-0.53859-6.0812 0.0664-9.0762 0.29914-1.4808 1.0954-2.1412 1.8457-2.1309zm22.465 9.2363c-0.94659 7e-3 -1.8932 0.0124-2.8398 0.0352-2.435 0.0586-4.8738 0.17646-7.2949 0.44335 0.53658 0.11375 1.0726 0.25472 1.6094 0.38282 0.51245-0.0934 1.0114-0.24711 1.5254-0.33399 2.3202-0.37485 4.6623-0.4197 7-0.52734zm-13.068 0.70508c-1.9231 0.0748-1.9446-0.0423-1.0644 1.0273 0.37699-0.28472 0.69964-0.71086 1.0644-1.0273zm33.479 0.12304c4.5836 0.44985 9.166 0.91094 13.742 1.4316-1.6738-0.21335-3.3494-0.41203-5.0215-0.63671-2.9022-0.29732-5.8101-0.56255-8.7207-0.79493z" fill="#f00"/>
</clipPath>
</defs>
<path d="m274.77 2.3203c-0.15517-0.18716-0.64571 0.31152-1.627 1.3086-1.0825 1.1-7.539 8.0926-14.348 15.541-10.936 11.963-23.709 25.801-72.881 78.961-6.8749 7.4325-14.661 15.948-17.303 18.924l-4.8047 5.4102-23.67-23.418c-13.019-12.88-23.917-23.643-24.217-23.918-0.3002-0.27499-16.32-16.138-35.6-35.25-25.192-24.974-35.686-34.75-37.303-34.75-2.446 1e-7 -8.6936 5.966-28.271 27-6.399 6.875-12.014 12.873-12.48 13.33-1.1103 1.0899 2.4571 3.6699 5.0762 3.6699 1.2939 0 7.1018-5.0461 15.799-13.727 13.048-13.023 13.841-13.637 15.486-11.992 1.6453 1.6453 1.2485 2.2333-7.7578 11.477-16.089 16.512-16.549 17.076-14.527 17.852 1.3372 0.51314 4.7042-2.2638 14.072-11.609 8.6676-8.6468 12.787-12.106 13.908-11.676 0.87596 0.33614 1.5905 1.1878 1.5879 1.8926s-5.3954 6.6832-11.982 13.283c-6.587 6.6-11.984 12.534-11.994 13.189-0.0587 3.738 3.3577 1.4073 15.08-10.289 12.226-12.199 12.968-12.763 14.615-11.115 1.6475 1.6475 1.0836 2.3893-11.115 14.615-11.727 11.753-14.005 15.1-10.275 15.1 0.66329 0 6.8001-5.6078 13.637-12.461 9.5703-9.5934 12.73-12.211 13.734-11.377 0.71754 0.59549 1.3047 1.5828 1.3047 2.1953 0 0.6125-5.6534 6.7787-12.562 13.703-11.184 11.209-12.383 12.738-10.936 13.939 1.4317 1.1882 3.112-0.13512 14.033-11.074 6.823-6.8342 12.943-12.426 13.602-12.426 3.0433 0 0.97998 2.9076-10.627 14.979-11.216 11.664-12.323 13.133-10.936 14.5 1.3862 1.3657 2.7871 0.21719 13.734-11.258 6.7053-7.0285 12.93-12.766 13.834-12.75 4.1707 0.07411 2.0584 3.3547-9.7305 15.115-6.8266 6.8102-12.412 12.927-12.412 13.59 0 3.7212 3.33 1.4665 14.916-10.094 9.4032-9.3823 13.137-12.501 14.391-12.02 0.93127 0.35736 1.6934 1.1583 1.6934 1.7793 0 0.62101-5.7259 6.8686-12.725 13.883-11.46 11.486-12.571 12.905-11.184 14.293 1.3876 1.3876 2.7747 0.29646 13.959-10.988 6.8301-6.8915 13.164-12.529 14.076-12.529 4.2142 0 2.0686 3.3308-9.7148 15.086-6.8266 6.8102-12.412 12.927-12.412 13.59 0 3.7256 3.3401 1.4582 15.018-10.193 9.0216-9.0015 13.268-12.589 14.391-12.158 0.87618 0.33622 1.5918 1.1952 1.5918 1.9082 0 0.713-5.625 6.9091-12.5 13.768-6.875 6.8584-12.5 12.828-12.5 13.266 0 0.43801 0.71756 1.072 1.5938 1.4082 1.123 0.43095 5.369-3.1566 14.391-12.158 12.102-12.075 15.016-13.956 15.016-9.6914 0 0.93862-5.4 7.093-12 13.676-6.6 6.5828-12 12.49-12 13.127 0 3.7547 3.7565 1.2054 15.037-10.205 6.7543-6.832 12.886-12.422 13.623-12.422 3.1929 0 0.61052 3.7303-10.41 15.045-6.4625 6.6348-11.75 12.594-11.75 13.244 0 3.4889 4.1578 0.60346 14.861-10.316 10.92-11.141 15.139-14.002 15.139-10.268 0 0.64819-5.5761 6.8611-12.393 13.807-10.963 11.171-12.222 12.799-10.908 14.113 1.3141 1.3141 2.9142 0.0367 13.865-11.07 6.8089-6.9059 12.929-12.555 13.6-12.555 3.7411 0 1.4812 3.3287-10.211 15.047-11.261 11.286-12.639 13.024-11.453 14.453 1.1989 1.4445 2.7552 0.21958 14.082-11.082 8.9745-8.9546 13.203-12.525 14.326-12.094 0.87619 0.33623 1.5918 1.1818 1.5918 1.8789 0 0.69712-5.6534 6.933-12.562 13.857-11.175 11.2-12.382 12.739-10.938 13.938 1.4287 1.1858 3.1772-0.20243 14.551-11.551 12.271-12.244 13.017-12.81 14.664-11.162s1.0796 2.3912-11.164 14.662c-11.349 11.375-12.737 13.124-11.551 14.553 1.199 1.4447 2.7979 0.17806 14.457-11.457 10.304-10.283 13.367-12.819 14.324-11.861 0.67005 0.67005 1.2188 1.6971 1.2188 2.2832s-5.4073 6.4594-12.018 13.051c-8.3554 8.3314-11.937 12.583-11.75 13.949 0.22155 1.6198-0.7004 2.2022-5.2324 3.3047-8.3895 2.0409-37.553 2.7766-47.668 1.2031-6.5118-1.013-9.7991-1.0532-14.496-0.17968-19.717 3.6668-35.163 19.352-38.824 39.426-1.0438 5.7224-0.9814 7.8146 0.41992 14.113 2.6361 11.849 9.2042 20.393 19.543 25.422 7.8441 3.8153 20.807 4.3498 30.045 1.2402 6.7798-2.2821 15.693-8.1266 22.48-14.74 2.2-2.1436 12.325-11.489 22.5-20.768 19.132-17.446 33.894-30.995 49.285-45.236 4.9036-4.5375 9.3216-8.25 9.8164-8.25 2.5609 0-0.26218 3.635-11.795 15.193-12.085 12.112-12.612 12.81-11.02 14.57 1.5946 1.762 0.2027 3.3984-29.703 34.957-34.123 36.009-36.315 38.971-38.615 52.193-1.3587 7.808-0.0082 17.098 3.4863 23.994 4.5532 8.9853 15.388 16.916 26.045 19.064 6.0182 1.2133 8.4067 1.1371 15.326-0.49414 25.381-5.9835 41.012-28.307 37.16-53.068-1.5951-10.254-0.81409-33.781 1.4746-44.41 4.3051-19.994 9.0431-30.297 17.922-38.975l6.625-6.4746 30.246 30.021c65.661 65.176 86.907 85.962 88.721 86.799 3.6373 1.6786 12.025-5.4314 12.025-10.193 0-1.1444-8.7879-10.514-22.25-23.723-61.356-60.203-100.75-99.492-100.75-100.48 0-0.60572 3.3062-5.9098 7.3457-11.787 14.986-21.804 44.632-65.185 55.141-80.686 5.9657-8.7999 14.539-21.404 19.049-28.008 4.5102-6.6038 8.5279-13.579 8.9297-15.5 0.3642-1.7414 0.54579-2.6136 0.39063-2.8008zm30.645 25.687-3 0.68164c-2.6143 0.59327-20.68 12.284-53.387 34.549-10.385 7.0696-10.463 7.1642-29.178 34.658-6.8391 10.047-13.052 19.16-13.807 20.25-0.83782 1.2103-0.95711 1.9824-0.30665 1.9824 0.5859 0 1.6524-0.82515 2.3711-1.832 1.3696-1.9189 7.0403-7.1841 59.26-55.035 17.626-16.152 33.397-30.692 35.047-32.311zm-127.35 90.879c0.87049-0.14527 1.682-0.0137 2.6582 0.35742 5.2644 2.0015 6.818 7.7628 3.1543 11.695-4.4452 4.7714-11.961 1.4246-11.961-5.3262 0-2.8674 0.57878-3.8671 3.1387-5.4238 1.2103-0.73604 2.1393-1.1575 3.0098-1.3027zm-38.256 4.6758c0.60897 0.37636 1.1074 1.025 1.1074 1.4414 0 1.2076-18.273 19.76-20.684 21-3.2732 1.6838-4.565 1.4484-3.418-0.625 1.9723-3.5654 21.913-22.485 22.994-21.816zm5.0098 5.5664c0.4697 0 1.3524 0.60035 1.9629 1.3359 0.8461 1.0195 0.57868 1.8122-1.127 3.334-3.7684 3.3623-11.738 7.546-11.738 6.1621 0-1.3695 9.5243-10.832 10.902-10.832zm-95.1 33.303c8.0041-0.31146 15.681 2.65 20.746 9.5762 10.846 14.831 3.1235 37.086-16.049 46.25-4.8817 2.3333-7.3047 2.8613-13 2.8301-3.85-0.0211-8.415-0.65368-10.145-1.4062-5.5838-2.4296-11.128-8.3299-13.312-14.168-2.4641-6.5858-2.5562-10.295-0.43164-17.455 4.5987-15.498 18.851-25.108 32.191-25.627zm63.373 69.004c1.7035-0.0721 3.273 0.1452 5.4082 0.62304 7.7729 1.7395 13.418 5.8015 16.879 12.143 9.5975 17.586-4.1151 41.859-25.896 45.842-3.2635 0.59673-6.1886 1.0397-6.5 0.98437-8.4414-1.4972-12.697-3.6414-17.27-8.7031-14.406-15.946-2.5995-43.715 21.164-49.773 2.673-0.68147 4.5114-1.0431 6.2148-1.1152z" clip-path="url(#a)"/>
<g aria-label="Barber Shop">
<path d="m383.09 114.9q4.9714 1.0781 8.4453 2.9349 3.5339 1.8568 5.75 4.3724 2.2162 2.5156 3.2344 5.5703 1.0182 2.9948 1.0182 6.349 0 2.9948-1.0182 5.9896-0.95834 2.9349-2.8151 5.5703-1.8568 2.5755-4.5521 4.7318-2.6354 2.0964-5.9896 3.4141-6.6484 2.5156-20.365 2.5156h-38.333v-2.2162h3.0547q5.0313 0 7.3073-3.2344 1.3776-2.0964 1.3776-8.9245v-52.469q0-7.487-1.737-9.5235-2.336-2.6354-6.9479-2.6354h-3.0547v-2.2162h35.099q9.8229 0 15.753 1.4375 4.4922 1.0781 7.9063 3.0547 3.474 1.9766 5.8099 4.612 2.3359 2.6354 3.5339 5.8698 1.1979 3.1745 1.1979 6.7084 0 6.1094-3.7136 10.961-3.7136 4.7917-10.961 7.1276zm-31.386-3.2344q4.5521 0.83855 11.32 0.83855 8.8047 0 13.117-1.8568 2.2162-0.95834 3.8932-2.4557 1.737-1.4974 2.875-3.3542 1.138-1.8568 1.737-4.013 0.59896-2.1563 0.59896-4.4922 0-3.474-1.4974-6.5886-1.4375-3.1745-4.3125-5.5104-2.875-2.3359-7.1276-3.7136-4.2526-1.3776-9.823-1.3776-6.1094 0-10.781 1.3177zm0 38.813q6.888 1.6172 13.716 1.6172 5.4505 0 9.5834-1.3177 4.1927-1.3177 7.0078-3.5938 2.8151-2.336 4.1927-5.3906 1.4375-3.1146 1.4375-6.6485 0-3.8932-1.5573-7.2474-1.4974-3.4141-4.6719-5.8698-3.1146-2.5156-7.9063-3.9531-4.7318-1.4375-11.201-1.4375-3.7734 0-6.4089 0.11979-2.5755 0.11979-4.1927 0.41927z"/>
<path d="m443.16 148.45q-8.4453 6.5886-10.602 7.5469-3.1745 1.4974-6.888 1.4974-2.8151 0-5.211-1.0182-2.3958-1.0182-4.1328-2.875-1.737-1.8568-2.7552-4.4323-0.95834-2.6354-0.95834-5.8099 0-2.3359 0.59896-4.3125 0.65886-1.9766 1.9167-3.7136 1.2578-1.7969 3.1745-3.4141 1.9766-1.6172 4.612-3.1745 6.1693-3.6537 20.245-8.7448v-2.1563q0-4.1328-0.71875-6.888-0.65886-2.7552-1.9766-4.3724-1.2578-1.6771-3.1745-2.3359-1.9167-0.71875-4.3125-0.71875-1.9167 0-3.474 0.59896-1.4974 0.53906-2.5755 1.4974-1.0781 0.89844-1.6771 2.1562-0.53907 1.1979-0.53907 2.4557l0.1198 3.474q0 2.7552-1.4375 4.2526-1.3776 1.4974-3.6536 1.4974-2.2162 0-3.6537-1.5573-1.3776-1.5573-1.3776-4.2526 0-2.5156 1.3177-4.9714 1.3776-2.4557 3.8932-4.4323 2.5755-1.9766 6.2891-3.1745 3.7734-1.1979 8.5651-1.1979 6.349 0 10.781 1.8568 4.4323 1.8568 6.4089 6.4089 1.0781 2.6354 1.0781 10.542v18.628q0 3.9531 0.0599 6.349 0.11979 2.3958 0.23958 3.2943 0.29948 1.737 0.95834 2.336 0.71875 0.59896 1.6172 0.59896 0.59896 0 1.138-0.17969 0.53907-0.17969 1.2578-0.71875 0.71875-0.53907 1.6771-1.4375 0.95833-0.95833 2.4557-2.4557v3.3542q-6.7682 8.9844-12.818 8.9844-2.875 0-4.6719-2.0365-1.7969-2.0365-1.7969-6.9479zm0-3.8932v-20.904q-4.5521 1.7969-7.487 3.0547-2.875 1.2578-4.1927 2.0365-4.7318 2.6953-6.7682 5.5703-2.0365 2.8151-2.0365 6.2292 0 2.1563 0.65886 4.013 0.71875 1.7969 1.8568 3.1745 1.1979 1.3177 2.7552 2.0964 1.5573 0.71875 3.2344 0.71875 4.5521 0 11.979-5.9896z"/>
<path d="m482.58 99.869v12.339q6.9479-12.339 14.135-12.339 1.6172 0 2.9948 0.53906 1.3776 0.53907 2.3958 1.4974 1.0781 0.89844 1.6172 2.0964 0.59896 1.1979 0.59896 2.5156 0 2.3359-1.5573 3.9531-1.5573 1.6172-3.7136 1.6172-1.0182 0-2.276-0.65885-1.2578-0.65886-2.5156-1.3776-1.1979-0.77865-2.2162-1.4375-1.0182-0.65886-1.5573-0.65886-0.77865 0-1.737 0.71875-0.95834 0.65886-1.9766 1.9167-1.0182 1.1979-2.0964 2.9349-1.0781 1.6771-2.0964 3.7136v26.294q0 2.4557 0.29948 4.4323 0.29948 1.9766 1.2578 3.3542 1.0182 1.3776 2.9349 2.1563 1.9167 0.71875 5.0912 0.71875v2.1562h-28.091v-2.1562q2.6354 0 4.3125-0.35938 1.6771-0.35937 2.6354-1.4375 0.95834-1.0781 1.3177-3.0547 0.35937-2.0365 0.35937-5.3307v-21.263q0-9.7032-0.41927-11.38-0.77865-3.5339-4.013-3.5339-1.8568 0-4.1927 0.89844l-0.59896-2.1563 16.591-6.7084z"/>
<path d="m522.41 110.95q8.0261-11.081 17.19-11.081 4.1328 0 7.9063 1.8568 3.8334 1.8568 6.7084 5.3906 2.9349 3.474 4.6719 8.4453t1.737 11.26q0 14.675-9.7032 23.539-8.3854 7.6667-18.568 7.6667-9.4636 0-19.826-6.9479v-56.841q0-9.224-0.47917-11.5-0.41927-2.1563-1.3776-2.9349-0.95833-0.77865-2.3958-0.77865-1.737 0-4.1927 0.95834l-0.83854-2.0964 16.471-6.7084h2.6953zm0 3.8333v32.823q6.1693 6.0495 12.997 6.0495 2.6953 0 5.3307-1.4974 2.6354-1.5573 4.7318-4.4922 2.1562-2.9948 3.474-7.3672 1.3177-4.3724 1.3177-10.063 0-5.211-1.3177-9.2839-1.2578-4.0729-3.4141-6.8281-2.1562-2.8151-4.9714-4.2526-2.7552-1.4974-5.6901-1.4974-1.4375 0-2.8151 0.23959-1.3776 0.23958-2.8151 0.95833-1.4375 0.65886-3.1146 1.9167-1.6771 1.2578-3.7136 3.2943z"/>
<path d="m577.93 122.15q0 6.1094 1.6172 10.961 1.6172 4.8516 4.3724 8.2656 2.7552 3.3542 6.349 5.151 3.6536 1.737 7.6667 1.737 5.3906 0 9.3438-2.9349 4.013-2.9948 6.7084-10.182l1.8568 1.1979q-0.65886 4.013-2.5156 7.9063-1.8568 3.8932-4.7917 6.9479-2.875 3.0547-6.7682 4.9714-3.8333 1.8568-8.3854 1.8568-4.9115 0-9.2839-1.9766-4.3125-2.0365-7.6068-5.6901-3.2344-3.7136-5.1511-8.9245-1.9167-5.2708-1.9167-11.8 0-7.1276 1.9167-12.638 1.9766-5.5703 5.3906-9.4037 3.4141-3.8333 8.0261-5.8099 4.6719-1.9766 10.003-1.9766 4.5521 0 8.3854 1.6172 3.8932 1.5573 6.7084 4.4922 2.8151 2.9349 4.3724 7.0677 1.6172 4.0729 1.6172 9.1641zm0-3.474h25.396q-0.23959-5.2708-1.2578-7.4271-1.4974-3.3542-4.4922-5.2708-2.9349-1.9167-6.1693-1.9167-2.4557 0-4.7318 1.0182-2.276 0.95834-4.1328 2.875-1.8568 1.8568-3.1146 4.5521-1.1979 2.6953-1.4974 6.1693z"/>
<path d="m639.2 99.869v12.339q6.9479-12.339 14.135-12.339 1.6172 0 2.9948 0.53906 1.3776 0.53907 2.3958 1.4974 1.0781 0.89844 1.6172 2.0964 0.59896 1.1979 0.59896 2.5156 0 2.3359-1.5573 3.9531-1.5573 1.6172-3.7136 1.6172-1.0182 0-2.276-0.65885-1.2578-0.65886-2.5156-1.3776-1.1979-0.77865-2.2162-1.4375-1.0182-0.65886-1.5573-0.65886-0.77864 0-1.737 0.71875-0.95834 0.65886-1.9766 1.9167-1.0182 1.1979-2.0964 2.9349-1.0781 1.6771-2.0964 3.7136v26.294q0 2.4557 0.29948 4.4323 0.29948 1.9766 1.2578 3.3542 1.0182 1.3776 2.9349 2.1563 1.9167 0.71875 5.0912 0.71875v2.1562h-28.091v-2.1562q2.6354 0 4.3125-0.35938 1.6771-0.35937 2.6354-1.4375 0.95833-1.0781 1.3177-3.0547 0.35937-2.0365 0.35937-5.3307v-21.263q0-9.7032-0.41927-11.38-0.77865-3.5339-4.013-3.5339-1.8568 0-4.1927 0.89844l-0.59896-2.1563 16.591-6.7084z"/>
<path d="m747.08 73.276v28.091h-2.2162q-1.0781-8.086-3.8932-12.878-1.3776-2.3958-3.474-4.3125-2.0365-1.9167-4.4922-3.2344-2.3958-1.3776-5.151-2.0964-2.6953-0.77865-5.4505-0.77865-3.0547 0-5.6901 1.0781-2.6354 1.0182-4.612 2.7552-1.9167 1.737-2.9948 4.013-1.0781 2.2162-1.0781 4.612 0 3.3542 1.5573 5.8698 1.5573 2.4557 4.2526 4.5521 2.7552 2.0964 6.4089 4.0729 3.7136 1.9766 8.0261 4.2526 4.8516 2.5755 9.224 5.0313 4.3724 2.4557 7.6667 5.4505 3.3542 2.9349 5.3307 6.7682 1.9766 3.7734 1.9766 9.1042 0 4.5521-1.9167 8.6849-1.8568 4.0729-5.2708 7.1875-3.3542 3.0547-8.086 4.8516-4.6719 1.8568-10.302 1.8568-2.0964 0-3.5938-0.0599t-2.875-0.29948q-1.3776-0.17968-2.875-0.65885-1.4375-0.41927-3.474-1.1979-1.4375-0.53907-2.9349-0.95834-1.4974-0.47917-2.7552-0.77865-1.2578-0.29948-2.1563-0.47916-0.83854-0.17969-1.0781-0.17969-1.4974 0-2.3958 0.89844-0.83854 0.89844-1.2578 3.7136h-2.2162v-27.852h2.2162q0.77865 4.3724 1.7969 7.6667 1.0781 3.2344 2.3958 5.4505 1.3177 2.1562 3.4141 4.013 2.0964 1.8568 4.6719 3.2344 2.6354 1.3177 5.6302 2.0964 3.0547 0.71875 6.2292 0.71875 3.7734 0 6.7682-1.0781 2.9948-1.0781 5.0912-2.875 2.0964-1.8568 3.1745-4.2526 1.138-2.4557 1.138-5.0912 0-3.8932-1.6172-6.5287-1.6172-2.6953-4.3724-4.7917-2.6953-2.0964-6.349-4.013-3.5938-1.9167-7.6068-4.3125-4.5521-2.6953-8.8047-5.0912-4.1927-2.4557-7.4271-5.3308-3.2344-2.9349-5.211-6.6484-1.9167-3.7136-1.9167-8.8646 0-4.3125 1.7969-8.2058 1.7969-3.8932 4.9714-6.8281 3.1745-2.9349 7.487-4.612 4.3724-1.737 9.5235-1.737 6.349 0 13.716 3.1745 3.2344 1.4974 4.7318 1.4974 1.5573 0 2.5156-0.89844 1.0182-0.95834 1.6172-3.7734z"/>
<path d="m779 71.179v40.13q1.9167-1.8568 3.7734-3.8932 1.9167-2.0365 4.0729-3.7136 2.1563-1.6771 4.6719-2.7552 2.5755-1.0781 5.8099-1.0781 4.3724 0 7.1276 1.9167 2.7552 1.8568 4.3125 5.0313 1.5573 3.1146 2.0964 7.1276 0.59896 4.013 0.59896 8.2656v21.742q0 2.7552 0.0599 4.6719 0.11979 1.8568 0.83854 3.0547 0.77865 1.138 2.3958 1.737 1.6771 0.59896 4.8516 0.77865v2.1562h-26.953v-2.1562h1.2578q2.6953 0 4.1927-0.47917t2.276-1.6172q0.77865-1.1979 0.95834-3.1745t0.17969-4.9714v-21.742q0-2.5755-0.11979-5.211-0.0599-2.6953-0.83855-4.8516-0.77865-2.2162-2.6354-3.5938-1.7969-1.4375-5.211-1.4375-1.4974 0-2.9948 0.35937-1.4974 0.29948-3.1745 1.1979-1.6172 0.83855-3.474 2.3958-1.8568 1.4974-4.0729 3.8932v28.99q0 2.9349 0.1198 4.612 0.11979 1.6172 0.41927 2.5156 0.35937 0.89844 0.89844 1.3177 0.59896 0.41927 1.4974 0.89844 0.83854 0.47917 2.3359 0.71875 1.4974 0.17969 3.5938 0.17969v2.1562h-27.193v-2.1562q2.276 0 3.8333-0.23959 1.6172-0.29948 2.6354-1.3177t1.4375-3.0547q0.47917-2.0964 0.47917-5.6302v-49.654q0-9.2839-0.47917-11.56-0.41927-2.1563-1.3776-2.9349-0.89844-0.77865-2.4557-0.77865-1.3776 0-4.0729 0.95834l-0.83854-2.0964 16.412-6.7084z"/>
<path d="m851.06 99.869q5.8099 0 10.661 2.276 4.8516 2.276 8.3255 6.1094 3.5339 3.8333 5.4505 8.9245 1.9766 5.0912 1.9766 10.721 0 5.9297-2.0365 11.38-1.9766 5.3906-5.5703 9.5834-3.5938 4.1927-8.5651 6.7084-4.9714 2.4557-10.901 2.4557-5.8099 0-10.602-2.3958-4.7318-2.3958-8.1459-6.349-3.4141-4.013-5.2708-9.1641-1.8568-5.1511-1.8568-10.661 0-5.5703 1.9167-10.901t5.3906-9.4636q3.5339-4.1927 8.3854-6.7084 4.9115-2.5156 10.841-2.5156zm-1.8568 3.8932q-2.6354 0-5.0912 1.138-2.3958 1.0781-4.3125 3.5938-1.8568 2.4557-2.9948 6.4089-1.138 3.8932-1.138 9.5235 0 5.8099 1.1979 11.141 1.2578 5.3308 3.474 9.4037 2.276 4.013 5.4505 6.4089 3.2344 2.3958 7.1875 2.3958 2.875 0 5.2708-1.0781 2.4557-1.138 4.2526-3.5938 1.7969-2.5156 2.8151-6.5886t1.0182-10.003q0-5.9297-1.138-11.141-1.138-5.211-3.3542-9.1042-2.1562-3.9531-5.3906-6.2292-3.1745-2.276-7.2474-2.276z"/>
<path d="m881.6 106.94 16.891-6.8282h2.276v12.818q2.1562-3.5938 4.2526-6.1094 2.1563-2.5156 4.3125-4.013 2.1563-1.5573 4.3724-2.2162 2.276-0.71875 4.612-0.71875 4.6719 0 8.4453 2.1563 3.8333 2.1562 6.4688 5.8698 2.6953 3.6537 4.1328 8.5651 1.4974 4.9115 1.4974 10.482 0 6.2292-1.7969 11.919-1.737 5.6302-5.0313 9.8828-3.2344 4.2526-7.8464 6.7682t-10.362 2.5156q-1.9766 0-3.6536-0.17969-1.6771-0.17968-3.2344-0.71875-1.4974-0.53906-2.9948-1.4375-1.4974-0.95834-3.1745-2.5156v16.711q0 2.9349 0.11979 4.612 0.17969 1.737 0.53906 2.6354 0.35938 0.95833 0.95834 1.4375t1.4375 0.89844q1.6771 0.89844 6.2292 0.89844v2.2162h-28.75v-2.2162h1.4974q2.3958 0 4.4323-0.65886 2.0365-0.65885 2.9349-2.7552 0.65885-1.4974 0.65885-7.4271v-51.87q0-3.1745-0.23958-5.0313-0.17969-1.9167-0.71875-2.9349-0.53907-1.0182-1.4974-1.3177-0.95834-0.35937-2.3958-0.35937-1.3177 0-3.6537 0.83854zm19.167 9.5235v20.484q0 6.7084 0.53906 8.7448 0.41927 1.737 1.4375 3.3542 1.0781 1.5573 2.6953 2.7552 1.6172 1.1979 3.6537 1.9167 2.0964 0.71875 4.5521 0.71875 3.474 0 6.1693-1.6172 2.7552-1.6771 4.612-4.5521 1.8568-2.9349 2.8151-6.9479 0.95833-4.013 0.95833-8.7448 0-5.151-1.0781-9.5235-1.0182-4.4323-2.9349-7.6068-1.9167-3.2344-4.612-5.0313-2.6953-1.8568-5.9896-1.8568-1.4974 0-2.875 0.47917t-2.875 1.4974q-1.4974 0.95833-3.2344 2.4557-1.6771 1.4974-3.8333 3.474z"/>
</g>
<g aria-label="Profesjonalne usługi barberskie">
<path d="m343.88 218.16 0.35416-4.7292 0.66667-16.292 0.0833-3.5q0.0208-0.83334 0.0208-1.6458v-2.2708q2.6042 0.0417 4.2292 0.0417 0.97917 0 3-0.0417t3.0208-0.0417q2.6458 0 3.9167 0.39583 1.2708 0.375 2.25 1.2917 0.97916 0.89584 1.5417 2.2292t0.5625 2.9375q0 2.625-1.3333 4.7292-1.3333 2.0833-3.6458 3.125-2.2917 1.0208-5.125 1.0208-1.5 0-3.3333-0.33334-0.3125-1.4375-0.70833-2.6042 1.625 0.3125 3.1667 0.3125 1.5 0 2.8542-0.33334 1.375-0.35416 2.3542-1.1458 0.97916-0.8125 1.5208-2.0208 0.54167-1.2083 0.54167-2.5625 0-1.0625-0.39583-1.9583-0.39584-0.91667-1.1042-1.4375-0.6875-0.54167-1.5833-0.72917-0.875-0.1875-2.5625-0.1875h-1.75l-2.1875 0.0417-1.625-0.0208q-0.25 4.5625-0.35417 8.2917l-0.29167 8.5625q-0.14583 4.875-0.14583 6.5208v2.3542l-1.9375-0.0417q-0.35417 0-2 0.0417z"/>
<path d="m366.55 218.16q0.75-12.021 0.75-19.188l-0.0208-1.9167q1.0625 0.0208 1.75 0.0208 0.79167 0 1.7708-0.0208l-0.16666 3.4583q0.77083-1.2917 1.3542-1.9375 0.60417-0.66667 1.3542-1.0833 0.75-0.4375 1.6875-0.66667 0.95834-0.25 1.9792-0.25 0.875 0 1.7292 0.20833 0.0208 1.375 0.14583 3.0833-1.2917-0.35417-2.3125-0.35417-1.2292 0-2.2083 0.41667-0.97917 0.39583-1.7708 1.2292-0.77083 0.8125-1.2708 1.9583-0.41667 0.91667-0.64584 2.375-0.20833 1.4583-0.33333 5.3125-0.0833 2.8125-0.0833 5.9583v1.3958q-1.125-0.0417-1.8125-0.0417-0.62501 0-1.8958 0.0417z"/>
<path d="m392.03 196.58q2.1875 0 4.1667 0.625 1.9792 0.625 3.4167 1.9792 1.4583 1.3542 2.2083 3.4167 0.75 2.0625 0.75 4.3542 0 2.4792-0.8125 4.75-0.79167 2.2708-2.25 3.8542-1.4375 1.5833-3.5417 2.3333-2.0833 0.72917-4.4792 0.72917-2.2292 0-4.2083-0.66667-1.9792-0.66666-3.4375-2.0833-1.4375-1.4167-2.1875-3.4583-0.75-2.0625-0.75-4.3125 0-3.3958 1.375-6.1042 1.375-2.7292 4.0417-4.0625 2.6667-1.3542 5.7083-1.3542zm-0.0833 2.6458q-2.125 0-3.9167 1.0625-1.7708 1.0625-2.625 3.2083-0.85417 2.125-0.85417 4.6458 0 2.2083 0.70834 3.9792 0.70833 1.75 2.3333 2.8333 1.625 1.0833 3.9167 1.0833 1.5625 0 2.9583-0.52084 1.3958-0.54166 2.4375-1.7708t1.5417-3q0.5-1.7917 0.5-3.75 0-1.8333-0.5-3.4375t-1.5417-2.5625q-1.0208-0.97917-2.3333-1.375-1.2917-0.39584-2.625-0.39584z"/>
<path d="m407.22 218.16 0.22916-3.8333 0.5625-14.667h-2.6042q0.10416-1.0208 0.16666-2.5625h2.6875q0.0417-1.9375 0.0833-2.9583 0.0625-1.0417 0.27083-1.8542 0.22917-0.83334 0.64584-1.3958 0.4375-0.58333 1.1875-1.0625 0.77083-0.47916 1.7708-0.6875 1.0208-0.22916 2.3333-0.22916 1.7292 0 4.0208 0.52083 0.0417 1.25 0.20834 2.6458-1.9792-0.68751-3.6042-0.68751-0.79167 0-1.4583 0.20834-0.66666 0.20833-1.0833 0.5625-0.39584 0.33333-0.66667 0.89583-0.25 0.5625-0.35417 1.3333-0.0833 0.77083-0.0833 1.8125l-0.0208 0.89583h5.7917q-0.10417 0.89584-0.1875 2.5625h-5.5833l-0.375 10.646-0.1875 7.8542q-1.2917-0.0417-1.8958-0.0417-0.58334 0-1.8542 0.0417z"/>
<path d="m436.51 214.85q-0.25 1.1458-0.5 2.9167-2 0.5-3.4792 0.66667-1.4583 0.1875-2.9167 0.1875-2.6042 0-4.6875-0.625-2.0625-0.625-3.5417-2.1667-1.4792-1.5625-2.125-3.5625t-0.64583-4.2292q0-3.1042 1.1875-5.75 1.1875-2.6667 3.5625-4.1875 2.3958-1.5208 6.0625-1.5208 1.8958 0 3.625 0.5625 1.7292 0.54167 2.875 1.6667 1.1458 1.125 1.7708 2.7917 0.625 1.6458 0.625 3.6042 0 0.75-0.125 1.4583h-15.896q-0.0833 1.1458-0.0833 1.75 0 2.1875 0.91666 4.0417 0.91667 1.8333 2.7083 2.7917 1.7917 0.9375 4.125 0.9375 2.6875 0 6.5417-1.3333zm-14.042-9.9167h12.417q-0.0208-1.3125-0.16667-2.0417-0.14583-0.72916-0.54166-1.5-0.39584-0.79167-1.0833-1.3542-0.66666-0.58333-1.625-0.875-0.9375-0.3125-2.0417-0.3125-1.1875 0-2.2708 0.33334-1.0625 0.33333-1.8958 0.91666-0.8125 0.58334-1.3958 1.375-0.5625 0.77083-0.85417 1.5-0.27083 0.72916-0.54166 1.9583z"/>
<path d="m440.9 217.76-0.125-1.5208q0-0.25-0.16667-1.5833 3.2083 1.3958 5.9167 1.3958 1.4167 0 2.3958-0.375t1.4583-1.1042q0.5-0.75 0.5-1.5417 0-0.4375-0.14583-0.875-0.125-0.4375-0.39583-0.83333-0.27084-0.41667-0.8125-0.89583-0.52084-0.5-2.2083-1.8542-1.6667-1.3542-2.5417-2.1042-0.85416-0.77083-1.4792-1.5625-0.60417-0.8125-0.89584-1.625t-0.29167-1.6458q0-1.3333 0.83334-2.5833 0.85417-1.25 2.4375-1.8542 1.6042-0.625 3.75-0.625 2.3958 0 5.2708 0.5625 0.0833 1.625 0.20833 2.9792-2.3333-0.95834-4.6042-0.95834-1.2292 0-2.2917 0.33334-1.0417 0.3125-1.5417 0.95833-0.47917 0.64584-0.47917 1.4167 0 0.5 0.16667 0.95833 0.16666 0.45834 0.58333 1 0.4375 0.52084 1.0417 1.0417 0.60417 0.52084 2.3958 1.9583 1.8125 1.4375 2.4792 2.125 0.66667 0.6875 1.1458 1.4167 0.47916 0.72916 0.6875 1.4583 0.22916 0.70833 0.22916 1.4583 0 1.4583-0.875 2.7083-0.85416 1.25-2.5625 1.9375-1.7083 0.6875-3.8333 0.6875-0.89584 0-2.1042-0.125-1.2083-0.10417-2.0625-0.27083-0.83334-0.14584-2.0833-0.45834z"/>
<path d="m459.78 192.49q0.0625-1.1875 0.10416-2.9375 0.89584 0.0417 2.0208 0.0417 1.0208 0 1.9792-0.0417-0.0625 1.0417-0.125 2.9375-1.125-0.0417-2-0.0417-0.85417 0-1.9792 0.0417zm3.7083 4.5625-0.41666 9.1875-0.33334 9.3125q-0.1875 5.5833-0.375 6.9375-0.1875 1.5625-0.5625 2.4375-0.3125 0.70833-0.79167 1.2708-0.47916 0.5625-1.2292 1.0208-0.8125 0.50001-1.7083 0.72917-1.2083 0.3125-2.8125 0.3125-2.5417 0-5.4792-0.64583-0.0417-1.1667-0.27083-2.9375 2.4583 0.89583 4.5417 0.89583 1.1667 0 2.1458-0.41667 0.83334-0.33333 1.3958-0.89583 0.45833-0.47917 0.79166-1.375 0.41667-1.0625 0.5625-2.7083 0.1875-2.2917 0.39584-6.6875 0.0625-1.3125 0.22916-6.375 0.20834-7.0625 0.20834-8.1667l-0.0208-1.8958q1.3125 0.0208 1.8958 0.0208 0.58333 0 1.8333-0.0208z"/>
<path d="m478.94 196.58q2.1875 0 4.1667 0.625t3.4167 1.9792q1.4583 1.3542 2.2083 3.4167 0.75 2.0625 0.75 4.3542 0 2.4792-0.8125 4.75-0.79166 2.2708-2.25 3.8542-1.4375 1.5833-3.5417 2.3333-2.0833 0.72917-4.4792 0.72917-2.2292 0-4.2083-0.66667-1.9792-0.66666-3.4375-2.0833-1.4375-1.4167-2.1875-3.4583-0.75-2.0625-0.75-4.3125 0-3.3958 1.375-6.1042 1.375-2.7292 4.0417-4.0625 2.6667-1.3542 5.7083-1.3542zm-0.0833 2.6458q-2.125 0-3.9167 1.0625-1.7708 1.0625-2.625 3.2083-0.85416 2.125-0.85416 4.6458 0 2.2083 0.70833 3.9792 0.70833 1.75 2.3333 2.8333 1.625 1.0833 3.9167 1.0833 1.5625 0 2.9583-0.52084 1.3958-0.54166 2.4375-1.7708t1.5417-3q0.5-1.7917 0.5-3.75 0-1.8333-0.5-3.4375t-1.5417-2.5625q-1.0208-0.97917-2.3333-1.375-1.2917-0.39584-2.625-0.39584z"/>
<path d="m493.44 218.16q1-13.063 1.0417-21.104l1.875 0.0208q0.6875 0 1.8125-0.0208l-0.27083 4.1667q0.52083-0.87501 0.83333-1.3333 0.3125-0.47917 0.83334-1 0.52083-0.52083 1.2292-0.95833 0.70833-0.45834 1.6667-0.75 0.95834-0.3125 1.9375-0.45834 1-0.14583 1.9792-0.14583 1.7917 0 3.4583 0.4375t2.7292 1.4375q1.0833 0.97917 1.4375 2.2083 0.375 1.2292 0.375 2.6458 0 0.27083-0.0208 1.0417-0.0208 0.77083-0.0833 2.0208l-0.41666 8.7292q-0.0417 1.25-0.0625 3.0625-0.93751-0.0417-1.7708-0.0417-1.0208 0-1.9167 0.0417 0.20834-2.5208 0.3125-4.8542l0.27084-4.8542q0.125-2.5 0.125-3.7708 0-1.8333-0.625-2.9167-0.625-1.1042-2-1.6875-1.375-0.60417-3.0833-0.60417-2.4167 0-4.1458 1.1458-1.5833 1.0625-2.4583 3.0208-0.60417 1.3958-0.85417 4.125-0.3125 3.2708-0.4375 10.396-1.1667-0.0417-1.8125-0.0417-0.64584 0-1.9583 0.0417z"/>
<path d="m520.63 200.41q0.18751-0.91666 0.39584-2.7083 2.5-0.64583 4.3333-0.875 1.8542-0.25 3.6042-0.25 1.875 0 3.5 0.35417 1.6458 0.33333 2.7292 1.1042 1.0833 0.77084 1.4375 1.7708 0.35416 1 0.35416 2.1458 0 1.4375-0.22916 4.8333-0.20834 3.375-0.33334 6.25-0.10416 2.875-0.10416 5.125-1.125-0.0417-1.8333-0.0417-0.66667 0-1.8958 0.0417l0.4375-5.6875 0.3125-6.7292q-0.72917 0.5625-1.1042 0.79167-0.35417 0.22917-0.8125 0.4375-0.45833 0.1875-1.0208 0.375-0.54167 0.16667-2.1458 0.60417-1.5833 0.4375-2.25 0.66666-1.4375 0.45834-2.2708 0.91667-0.83333 0.45834-1.3958 1-0.5625 0.54167-0.79167 1.0833-0.27083 0.66666-0.27083 1.3958 0 1.125 0.66667 1.9583 0.66666 0.83333 1.6667 1.1667 1.0208 0.3125 2.4375 0.3125 0.875 0 1.8333-0.125t2.5625-0.64583q-0.29166 0.8125-0.66666 2.5-1.5208 0.29167-2.4792 0.35417-0.95834 0.0833-1.8125 0.0833-2.8542 0-4.4583-0.66667-1.6042-0.66666-2.3958-2.0208-0.79166-1.375-0.79166-2.9792 0-0.9375 0.27083-1.7292 0.29167-0.79166 0.77083-1.4375 0.47917-0.64583 1.3542-1.2917 0.89584-0.64583 1.8542-1.0625 0.97917-0.41666 2.2708-0.8125 1.2917-0.41666 4.1458-1.1042 0.91667-0.20834 1.5625-0.41667 0.64584-0.22917 1.1458-0.4375 0.5-0.20834 0.875-0.47917 0.375-0.29167 0.6875-0.6875 0.3125-0.41667 0.45833-0.83333 0.14583-0.41667 0.14583-0.83334 0-1.0208-0.66666-1.75-0.66667-0.72917-1.75-1.0208-1.0625-0.29167-2.5208-0.29167-1.3542 0-2.7917 0.22917-1.4167 0.20833-2.4583 0.52083-1.0208 0.29167-2.5625 0.89583z"/>
<path d="m541.99 218.16q0.41666-6.4167 0.8125-15.208 0.27083-6.3958 0.39583-13.229l1.9375 0.0208q0.60417 0 1.8542-0.0208l-0.64583 12.229-0.45834 12.375-0.0833 3.8333q-1.2292-0.0417-1.8333-0.0417-0.25 0-1.9792 0.0417z"/>
<path d="m551.4 218.16q1-13.063 1.0417-21.104l1.875 0.0208q0.6875 0 1.8125-0.0208l-0.27084 4.1667q0.52084-0.87501 0.83334-1.3333 0.3125-0.47917 0.83333-1 0.52084-0.52083 1.2292-0.95833 0.70833-0.45834 1.6667-0.75 0.95833-0.3125 1.9375-0.45834 1-0.14583 1.9792-0.14583 1.7917 0 3.4583 0.4375 1.6667 0.4375 2.7292 1.4375 1.0833 0.97917 1.4375 2.2083 0.375 1.2292 0.375 2.6458 0 0.27083-0.0208 1.0417-0.0208 0.77083-0.0833 2.0208l-0.41667 8.7292q-0.0417 1.25-0.0625 3.0625-0.9375-0.0417-1.7708-0.0417-1.0208 0-1.9167 0.0417 0.20833-2.5208 0.3125-4.8542l0.27083-4.8542q0.125-2.5 0.125-3.7708 0-1.8333-0.625-2.9167-0.625-1.1042-2-1.6875-1.375-0.60417-3.0833-0.60417-2.4167 0-4.1458 1.1458-1.5833 1.0625-2.4583 3.0208-0.60417 1.3958-0.85417 4.125-0.3125 3.2708-0.4375 10.396-1.1667-0.0417-1.8125-0.0417-0.64583 0-1.9583 0.0417z"/>
<path d="m594.53 214.85q-0.25 1.1458-0.5 2.9167-2 0.5-3.4792 0.66667-1.4583 0.1875-2.9167 0.1875-2.6042 0-4.6875-0.625-2.0625-0.625-3.5417-2.1667-1.4792-1.5625-2.125-3.5625-0.64584-2-0.64584-4.2292 0-3.1042 1.1875-5.75 1.1875-2.6667 3.5625-4.1875 2.3958-1.5208 6.0625-1.5208 1.8958 0 3.625 0.5625 1.7292 0.54167 2.875 1.6667 1.1458 1.125 1.7708 2.7917 0.625 1.6458 0.625 3.6042 0 0.75-0.125 1.4583h-15.896q-0.0833 1.1458-0.0833 1.75 0 2.1875 0.91667 4.0417 0.91667 1.8333 2.7083 2.7917 1.7917 0.9375 4.125 0.9375 2.6875 0 6.5417-1.3333zm-14.042-9.9167h12.417q-0.0208-1.3125-0.16667-2.0417-0.14583-0.72916-0.54166-1.5-0.39584-0.79167-1.0833-1.3542-0.66667-0.58333-1.625-0.875-0.9375-0.3125-2.0417-0.3125-1.1875 0-2.2708 0.33334-1.0625 0.33333-1.8958 0.91666-0.8125 0.58334-1.3958 1.375-0.5625 0.77083-0.85417 1.5-0.27083 0.72916-0.54167 1.9583z"/>
<path d="m630.38 218.16q-1.0208-0.0417-1.75-0.0417-0.83333 0-1.7292 0.0417l0.10416-4.0208q-0.5 0.9375-0.875 1.4583-0.35417 0.5-0.89583 1-0.54167 0.47916-1.125 0.8125-0.5625 0.33333-1.3333 0.60416-0.77083 0.25-1.8125 0.41667-1.0208 0.1875-2.1875 0.1875-2.5417 0-4.3542-0.77083-1.7917-0.77084-2.7292-2.1875-0.91667-1.4167-0.91667-3.875 0-0.375 0.0417-1.2708t0.125-2.3333l0.35417-6.9375 0.0625-2.2292q0.0208-0.77083 0.0208-1.9583l1.9167 0.0208q0.58333 0 1.7917-0.0208-0.29167 3.6458-0.5625 7.9792-0.25 4.3333-0.25 5.5417 0 1.8333 0.58333 2.9375 0.60417 1.0833 1.9792 1.6875 1.3958 0.58334 3.1458 0.58334 1.5417 0 2.9583-0.54167 1.2083-0.47917 2.0417-1.2917 0.89583-0.89583 1.5-2.3125 0.4375-1.0417 0.66667-2.6875 0.14583-1.1875 0.29166-4.2708 0.16667-3.75 0.22917-7.625l1.9375 0.0208q0.625 0 1.75-0.0208-0.29166 3.75-0.6875 11.396-0.22917 4.2083-0.29167 9.7083z"/>
<path d="m635.01 217.76-0.125-1.5208q0-0.25-0.16667-1.5833 3.2083 1.3958 5.9167 1.3958 1.4167 0 2.3958-0.375t1.4583-1.1042q0.5-0.75 0.5-1.5417 0-0.4375-0.14583-0.875-0.125-0.4375-0.39583-0.83333-0.27084-0.41667-0.8125-0.89583-0.52084-0.5-2.2083-1.8542-1.6667-1.3542-2.5417-2.1042-0.85416-0.77083-1.4792-1.5625-0.60416-0.8125-0.89583-1.625t-0.29167-1.6458q0-1.3333 0.83334-2.5833 0.85417-1.25 2.4375-1.8542 1.6042-0.625 3.75-0.625 2.3958 0 5.2708 0.5625 0.0833 1.625 0.20833 2.9792-2.3333-0.95834-4.6042-0.95834-1.2292 0-2.2917 0.33334-1.0417 0.3125-1.5417 0.95833-0.47917 0.64584-0.47917 1.4167 0 0.5 0.16667 0.95833 0.16666 0.45834 0.58333 1 0.4375 0.52084 1.0417 1.0417 0.60416 0.52084 2.3958 1.9583 1.8125 1.4375 2.4792 2.125t1.1458 1.4167q0.47916 0.72916 0.6875 1.4583 0.22916 0.70833 0.22916 1.4583 0 1.4583-0.875 2.7083-0.85416 1.25-2.5625 1.9375-1.7083 0.6875-3.8333 0.6875-0.89583 0-2.1042-0.125-1.2083-0.10417-2.0625-0.27083-0.83333-0.14584-2.0833-0.45834z"/>
<path d="m650.92 208.66q0.16666-1.9583 0.16666-3.5 0.79167-0.5625 3-2.2083l0.35417-9.8542 0.0625-3.375 1.9167 0.0208q0.625 0 1.875-0.0208-0.29167 4.1667-0.58333 11.188 1.2292-0.97917 3.1667-2.5625-0.0833 1.125-0.125 1.7708-0.0208 0.625-0.0208 1.7292-0.5 0.35416-3.1875 2.3542l-0.45833 13.958q-1.2292-0.0417-1.8333-0.0417-0.22916 0-1.9792 0.0417 0.25-3.4583 0.625-11.896z"/>
<path d="m682.99 218.16q-1.0208-0.0417-1.75-0.0417-0.83333 0-1.7292 0.0417l0.10417-4.0208q-0.5 0.9375-0.875 1.4583-0.35417 0.5-0.89583 1-0.54167 0.47916-1.125 0.8125-0.5625 0.33333-1.3333 0.60416-0.77083 0.25-1.8125 0.41667-1.0208 0.1875-2.1875 0.1875-2.5417 0-4.3542-0.77083-1.7917-0.77084-2.7292-2.1875-0.91667-1.4167-0.91667-3.875 0-0.375 0.0417-1.2708t0.125-2.3333l0.35416-6.9375 0.0625-2.2292q0.0208-0.77083 0.0208-1.9583l1.9167 0.0208q0.58333 0 1.7917-0.0208-0.29166 3.6458-0.5625 7.9792-0.25 4.3333-0.25 5.5417 0 1.8333 0.58334 2.9375 0.60416 1.0833 1.9792 1.6875 1.3958 0.58334 3.1458 0.58334 1.5417 0 2.9583-0.54167 1.2083-0.47917 2.0417-1.2917 0.89584-0.89583 1.5-2.3125 0.4375-1.0417 0.66666-2.6875 0.14584-1.1875 0.29167-4.2708 0.16667-3.75 0.22917-7.625l1.9375 0.0208q0.625 0 1.75-0.0208-0.29167 3.75-0.6875 11.396-0.22917 4.2083-0.29167 9.7083z"/>
<path d="m689.9 224.26q2.75 0.83333 4.6042 1.125 1.8542 0.29167 3.375 0.29167 1.7292 0 3.2083-0.47917 1.2292-0.39583 2.1042-1.125 0.66667-0.5625 1.1042-1.4583 0.54167-1.1875 0.77083-3.0208 0.1875-1.4792 0.29167-5.8958-0.5 0.9375-0.91667 1.5208-0.39583 0.58333-1.0833 1.2083-0.6875 0.60417-1.6042 1.0833-0.91667 0.47917-2.125 0.75-1.2083 0.29167-2.5 0.29167-1.8958 0-3.5625-0.52083-1.6458-0.52084-2.9583-1.7292-1.2917-1.2083-1.9792-3.0833-0.66667-1.875-0.66667-3.9167 0-2.8125 1-5.3542 1.0208-2.5417 2.9583-4.25 1.9583-1.7083 4.3958-2.4167 2.4583-0.70833 5.375-0.70833 3.2083 0 7.9792 0.85417l-0.22916 2.5625-0.625 11.688q0 0.35416-0.10417 4.25l-0.125 4.3125q-0.10417 1.375-0.375 2.4167-0.25 0.85417-0.66667 1.625-0.375 0.70834-0.9375 1.2917-0.54167 0.60417-1.2708 1.0833-0.72917 0.47917-1.5625 0.77084-1.1667 0.41667-2.4167 0.60417-1.4167 0.22916-2.8333 0.22916-2.0417 0-4.0208-0.20833-1.9583-0.20833-4.3958-0.79167l-0.0625-1.1458q-0.0208-0.41667-0.14583-1.8542zm16.021-24.583q-2.3333-0.45834-4.3542-0.45834-2.0417 0-3.7917 0.47917-1.7292 0.47917-3.1875 1.75-1.4375 1.2708-2.25 3.2917-0.8125 2.0208-0.8125 4.1875 0 2.0208 0.72916 3.6875 0.75 1.6667 2.2917 2.5208 1.5417 0.83334 3.5 0.83334 1.6875 0 3-0.58334 1.3333-0.60416 2.3542-1.8333 1.0625-1.2708 1.5833-2.9167 0.39583-1.1667 0.60417-3.4583 0.16666-1.8333 0.33333-7.5z"/>
<path d="m715.36 192.51q0.0625-1.9583 0.0625-2.9583 1.1458 0.0417 2.0208 0.0417 1.1042 0 2-0.0417-0.0417 0.64583-0.125 2.9583-1.125-0.0208-1.9375-0.0208t-2.0208 0.0208zm-0.9375 25.646 0.35417-5.25 0.39583-8.9583 0.16667-6.8958 1.9167 0.0208 1.875-0.0208q-0.22917 3.25-0.41667 6.8125-0.1875 3.5417-0.3125 7.75-0.10417 4.2083-0.10417 6.5417-1.3125-0.0417-1.875-0.0417-0.52083 0-2 0.0417z"/>
<path d="m734.69 218.16 0.1875-2.3333q0.0417-0.625 0.125-2.3542l0.58334-14.125 0.25-9.625q1.2708 0.0208 1.9792 0.0208 0.72917 0 1.8542-0.0208-0.29166 2.6667-0.52083 7.6667 2.1875-0.47917 3.5833-0.64583 1.3958-0.16667 2.75-0.16667 2.625 0 4.625 0.66667 2 0.66666 3.2917 2.2083 1.3125 1.5417 1.8542 3.3958 0.54166 1.8542 0.54166 3.9375 0 2.375-0.66666 4.6042-0.64584 2.2083-1.9792 3.9375-1.3125 1.7083-3.2083 2.5-1.8958 0.79167-4.1458 0.79167-1.2083 0-2.2708-0.27083-1.0625-0.25-1.9167-0.70834-0.85416-0.45833-1.4583-1.0417-0.58333-0.58334-0.97917-1.1667-0.375-0.58333-0.85417-1.6042l-0.0625 4.3333q-1.2083-0.0417-1.7083-0.0417-0.35417 0-1.8542 0.0417zm4.25-17.958q-0.14583 3.4583-0.20833 4.5625-0.0625 1.1042-0.0625 2.6458 0 3.2708 0.75 5.0208t2.25 2.6458q1.5 0.89584 3.3958 0.89584 2.1875 0 3.7708-1.1042 1.5833-1.1042 2.4583-3.3542 0.875-2.2708 0.875-4.7083 0-3.4375-1.8333-5.5417-1.8125-2.1042-5.4792-2.1042-1.2708 0-2.6458 0.22917-1.3542 0.20833-3.2708 0.8125z"/>
<path d="m761.22 200.41q0.1875-0.91666 0.39583-2.7083 2.5-0.64583 4.3333-0.875 1.8542-0.25 3.6042-0.25 1.875 0 3.5 0.35417 1.6458 0.33333 2.7292 1.1042 1.0833 0.77084 1.4375 1.7708t0.35417 2.1458q0 1.4375-0.22917 4.8333-0.20834 3.375-0.33334 6.25-0.10416 2.875-0.10416 5.125-1.125-0.0417-1.8333-0.0417-0.66666 0-1.8958 0.0417l0.4375-5.6875 0.3125-6.7292q-0.72917 0.5625-1.1042 0.79167-0.35417 0.22917-0.8125 0.4375-0.45833 0.1875-1.0208 0.375-0.54167 0.16667-2.1458 0.60417-1.5833 0.4375-2.25 0.66666-1.4375 0.45834-2.2708 0.91667-0.83334 0.45834-1.3958 1-0.5625 0.54167-0.79167 1.0833-0.27083 0.66666-0.27083 1.3958 0 1.125 0.66667 1.9583 0.66666 0.83333 1.6667 1.1667 1.0208 0.3125 2.4375 0.3125 0.875 0 1.8333-0.125 0.95834-0.125 2.5625-0.64583-0.29166 0.8125-0.66666 2.5-1.5208 0.29167-2.4792 0.35417-0.95834 0.0833-1.8125 0.0833-2.8542 0-4.4583-0.66667-1.6042-0.66666-2.3958-2.0208-0.79166-1.375-0.79166-2.9792 0-0.9375 0.27083-1.7292 0.29167-0.79166 0.77084-1.4375 0.47916-0.64583 1.3542-1.2917 0.89584-0.64583 1.8542-1.0625 0.97917-0.41666 2.2708-0.8125 1.2917-0.41666 4.1458-1.1042 0.91667-0.20834 1.5625-0.41667 0.64584-0.22917 1.1458-0.4375 0.5-0.20834 0.875-0.47917 0.375-0.29167 0.6875-0.6875 0.3125-0.41667 0.45833-0.83333 0.14584-0.41667 0.14584-0.83334 0-1.0208-0.66667-1.75t-1.75-1.0208q-1.0625-0.29167-2.5208-0.29167-1.3542 0-2.7917 0.22917-1.4167 0.20833-2.4583 0.52083-1.0208 0.29167-2.5625 0.89583z"/>
<path d="m782.49 218.16q0.75-12.021 0.75-19.188l-0.0208-1.9167q1.0625 0.0208 1.75 0.0208 0.79166 0 1.7708-0.0208l-0.16666 3.4583q0.77083-1.2917 1.3542-1.9375 0.60417-0.66667 1.3542-1.0833 0.75-0.4375 1.6875-0.66667 0.95834-0.25 1.9792-0.25 0.875 0 1.7292 0.20833 0.0208 1.375 0.14583 3.0833-1.2917-0.35417-2.3125-0.35417-1.2292 0-2.2083 0.41667-0.97916 0.39583-1.7708 1.2292-0.77083 0.8125-1.2708 1.9583-0.41667 0.91667-0.64584 2.375-0.20833 1.4583-0.33333 5.3125-0.0833 2.8125-0.0833 5.9583v1.3958q-1.125-0.0417-1.8125-0.0417-0.625 0-1.8958 0.0417z"/>
<path d="m797.57 218.16 0.1875-2.3333q0.0417-0.625 0.125-2.3542l0.58334-14.125 0.25-9.625q1.2708 0.0208 1.9792 0.0208 0.72917 0 1.8542-0.0208-0.29166 2.6667-0.52083 7.6667 2.1875-0.47917 3.5833-0.64583 1.3958-0.16667 2.75-0.16667 2.625 0 4.625 0.66667 2 0.66666 3.2917 2.2083 1.3125 1.5417 1.8542 3.3958 0.54166 1.8542 0.54166 3.9375 0 2.375-0.66666 4.6042-0.64584 2.2083-1.9792 3.9375-1.3125 1.7083-3.2083 2.5-1.8958 0.79167-4.1458 0.79167-1.2083 0-2.2708-0.27083-1.0625-0.25-1.9167-0.70834-0.85416-0.45833-1.4583-1.0417-0.58333-0.58334-0.97917-1.1667-0.375-0.58333-0.85417-1.6042l-0.0625 4.3333q-1.2083-0.0417-1.7083-0.0417-0.35417 0-1.8542 0.0417zm4.25-17.958q-0.14584 3.4583-0.20834 4.5625-0.0625 1.1042-0.0625 2.6458 0 3.2708 0.75 5.0208t2.25 2.6458q1.5 0.89584 3.3958 0.89584 2.1875 0 3.7708-1.1042 1.5833-1.1042 2.4583-3.3542 0.875-2.2708 0.875-4.7083 0-3.4375-1.8333-5.5417-1.8125-2.1042-5.4792-2.1042-1.2708 0-2.6458 0.22917-1.3542 0.20833-3.2708 0.8125z"/>
<path d="m840.03 214.85q-0.25 1.1458-0.5 2.9167-2 0.5-3.4792 0.66667-1.4583 0.1875-2.9167 0.1875-2.6042 0-4.6875-0.625-2.0625-0.625-3.5417-2.1667-1.4792-1.5625-2.125-3.5625-0.64584-2-0.64584-4.2292 0-3.1042 1.1875-5.75 1.1875-2.6667 3.5625-4.1875 2.3958-1.5208 6.0625-1.5208 1.8958 0 3.625 0.5625 1.7292 0.54167 2.875 1.6667 1.1458 1.125 1.7708 2.7917 0.625 1.6458 0.625 3.6042 0 0.75-0.125 1.4583h-15.896q-0.0833 1.1458-0.0833 1.75 0 2.1875 0.91667 4.0417 0.91667 1.8333 2.7083 2.7917 1.7917 0.9375 4.125 0.9375 2.6875 0 6.5417-1.3333zm-14.042-9.9167h12.417q-0.0208-1.3125-0.16667-2.0417-0.14583-0.72916-0.54167-1.5-0.39583-0.79167-1.0833-1.3542-0.66667-0.58333-1.625-0.875-0.9375-0.3125-2.0417-0.3125-1.1875 0-2.2708 0.33334-1.0625 0.33333-1.8958 0.91666-0.8125 0.58334-1.3958 1.375-0.5625 0.77083-0.85417 1.5-0.27083 0.72916-0.54167 1.9583z"/>
<path d="m845.34 218.16q0.75-12.021 0.75-19.188l-0.0208-1.9167q1.0625 0.0208 1.75 0.0208 0.79166 0 1.7708-0.0208l-0.16667 3.4583q0.77084-1.2917 1.3542-1.9375 0.60417-0.66667 1.3542-1.0833 0.75-0.4375 1.6875-0.66667 0.95833-0.25 1.9792-0.25 0.875 0 1.7292 0.20833 0.0208 1.375 0.14583 3.0833-1.2917-0.35417-2.3125-0.35417-1.2292 0-2.2083 0.41667-0.97917 0.39583-1.7708 1.2292-0.77084 0.8125-1.2708 1.9583-0.41666 0.91667-0.64583 2.375-0.20833 1.4583-0.33333 5.3125-0.0833 2.8125-0.0833 5.9583v1.3958q-1.125-0.0417-1.8125-0.0417-0.625 0-1.8958 0.0417z"/>
<path d="m859.34 217.76-0.125-1.5208q0-0.25-0.16667-1.5833 3.2083 1.3958 5.9167 1.3958 1.4167 0 2.3958-0.375 0.97916-0.375 1.4583-1.1042 0.5-0.75 0.5-1.5417 0-0.4375-0.14583-0.875-0.125-0.4375-0.39584-0.83333-0.27083-0.41667-0.8125-0.89583-0.52083-0.5-2.2083-1.8542-1.6667-1.3542-2.5417-2.1042-0.85417-0.77083-1.4792-1.5625-0.60417-0.8125-0.89583-1.625-0.29167-0.8125-0.29167-1.6458 0-1.3333 0.83333-2.5833 0.85417-1.25 2.4375-1.8542 1.6042-0.625 3.75-0.625 2.3958 0 5.2708 0.5625 0.0833 1.625 0.20833 2.9792-2.3333-0.95834-4.6042-0.95834-1.2292 0-2.2917 0.33334-1.0417 0.3125-1.5417 0.95833-0.47916 0.64584-0.47916 1.4167 0 0.5 0.16666 0.95833 0.16667 0.45834 0.58334 1 0.4375 0.52084 1.0417 1.0417 0.60417 0.52084 2.3958 1.9583 1.8125 1.4375 2.4792 2.125t1.1458 1.4167q0.47917 0.72916 0.6875 1.4583 0.22917 0.70833 0.22917 1.4583 0 1.4583-0.875 2.7083-0.85417 1.25-2.5625 1.9375-1.7083 0.6875-3.8333 0.6875-0.89583 0-2.1042-0.125-1.2083-0.10417-2.0625-0.27083-0.83333-0.14584-2.0833-0.45834z"/>
<path d="m877.3 218.16 0.35417-5.6458 0.4375-10.813 0.22916-9.0625q0.0208-1.9792 0.0208-2.9167l1.9375 0.0208q0.5625 0 1.8125-0.0208-0.27083 3.3542-0.66667 13.042-0.375 9.6667-0.4375 15.396-1.2917-0.0417-1.8125-0.0417-0.58333 0-1.875 0.0417zm4.2917-11.771 4.25-4.5417q2.2292-2.375 4.2083-4.7917 1.4375 0.0208 2.0833 0.0208 0.81251 0 2.2292-0.0208l-9 9.3542q2.5208 3.2917 9.75 11.75-1.2917-0.0417-2.0833-0.0417t-2.1458 0.0417l-3.0625-4.0625q-0.4375-0.56251-1.9375-2.375l-3.2292-3.9375z"/>
<path d="m898.76 192.51q0.0625-1.9583 0.0625-2.9583 1.1458 0.0417 2.0208 0.0417 1.1042 0 2-0.0417-0.0417 0.64583-0.125 2.9583-1.125-0.0208-1.9375-0.0208t-2.0208 0.0208zm-0.9375 25.646 0.35417-5.25 0.39583-8.9583 0.16667-6.8958 1.9167 0.0208 1.875-0.0208q-0.22917 3.25-0.41667 6.8125-0.1875 3.5417-0.3125 7.75-0.10416 4.2083-0.10416 6.5417-1.3125-0.0417-1.875-0.0417-0.52083 0-2 0.0417z"/>
<path d="m924.59 214.85q-0.25 1.1458-0.5 2.9167-2 0.5-3.4792 0.66667-1.4583 0.1875-2.9167 0.1875-2.6042 0-4.6875-0.625-2.0625-0.625-3.5417-2.1667-1.4792-1.5625-2.125-3.5625-0.64584-2-0.64584-4.2292 0-3.1042 1.1875-5.75 1.1875-2.6667 3.5625-4.1875 2.3958-1.5208 6.0625-1.5208 1.8958 0 3.625 0.5625 1.7292 0.54167 2.875 1.6667 1.1458 1.125 1.7708 2.7917 0.625 1.6458 0.625 3.6042 0 0.75-0.125 1.4583h-15.896q-0.0833 1.1458-0.0833 1.75 0 2.1875 0.91667 4.0417 0.91667 1.8333 2.7083 2.7917 1.7917 0.9375 4.125 0.9375 2.6875 0 6.5417-1.3333zm-14.042-9.9167h12.417q-0.0208-1.3125-0.16667-2.0417-0.14583-0.72916-0.54167-1.5-0.39583-0.79167-1.0833-1.3542-0.66667-0.58333-1.625-0.875-0.9375-0.3125-2.0417-0.3125-1.1875 0-2.2708 0.33334-1.0625 0.33333-1.8958 0.91666-0.8125 0.58334-1.3958 1.375-0.5625 0.77083-0.85417 1.5-0.27083 0.72916-0.54167 1.9583z"/>
</g>
</svg>
